<svg xmlns="http://www.w3.org/2000/svg" id="Layer_2" data-name="Layer 2" viewBox="0 0 374.17 374.17" width="374.1700134277344" height="374.1700134277344">
  <defs>
    <style>
      .cls-1 {
        fill: #ff8300;
      }
    </style>
  </defs>
  <g id="Layer_2-2" data-name="Layer 2">
    <g>
      <path class="cls-1" d="M0,171.68h50.22c3.42-30.96,17.14-59.63,39.48-81.98h.01c22.35-22.35,51.02-36.06,81.98-39.48V0C80.3,7.42,7.42,80.3,0,171.68Z"/>
      <path class="cls-1" d="M89.71,284.47c-22.35-22.35-36.06-51.02-39.48-81.98H0c7.42,91.39,80.3,164.26,171.68,171.68v-50.22c-30.96-3.42-59.63-17.13-81.98-39.48h.01Z"/>
      <path class="cls-1" d="M284.47,284.47h0c-22.35,22.35-51.02,36.06-81.98,39.48v50.22c91.39-7.42,164.26-80.3,171.68-171.68h-50.22c-3.42,30.96-17.13,59.63-39.48,81.98Z"/>
      <path class="cls-1" d="M323.95,171.68h50.22C366.75,80.3,293.88,7.42,202.49,0v50.22c30.96,3.42,59.63,17.14,81.98,39.48,22.35,22.35,36.06,51.02,39.48,81.98Z"/>
    </g>
  </g>
</svg>
